/* XPM */
static char * knob_xpm[] = {
"32 32 133 2",
"  	c None",
". 	c #7F7F7F",
"+ 	c #4C4C4C",
"@ 	c #838383",
"# 	c #8A8A8A",
"$ 	c #9F9F9F",
"% 	c #BABABA",
"& 	c #CBCBCB",
"* 	c #CACACA",
"= 	c #B6B6B6",
"- 	c #9A9A9A",
"; 	c #888888",
"> 	c #989898",
", 	c #DDDDDD",
"' 	c #DCDCDC",
") 	c #D9D9D9",
"! 	c #D4D4D4",
"~ 	c #D1D1D1",
"{ 	c #CECECE",
"] 	c #CDCDCD",
"^ 	c #C6C6C6",
"/ 	c #8B8B8B",
"( 	c #868686",
"_ 	c #D7D7D7",
": 	c #E0E0E0",
"< 	c #DFDFDF",
"[ 	c #DBDBDB",
"} 	c #C7C7C7",
"| 	c #C4C4C4",
"1 	c #C3C3C3",
"2 	c #BFBFBF",
"3 	c #AEAEAE",
"4 	c #818181",
"5 	c #E1E1E1",
"6 	c #DADADA",
"7 	c #D2D2D2",
"8 	c #C8C8C8",
"9 	c #C2C2C2",
"0 	c #BEBEBE",
"a 	c #BDBDBD",
"b 	c #B9B9B9",
"c 	c #B5B5B5",
"d 	c #D0D0D0",
"e 	c #BBBBBB",
"f 	c #B4B4B4",
"g 	c #B3B3B3",
"h 	c #ADADAD",
"i 	c #A2A2A2",
"j 	c #8F8F8F",
"k 	c #808080",
"l 	c #D3D3D3",
"m 	c #CFCFCF",
"n 	c #B8B8B8",
"o 	c #B2B2B2",
"p 	c #AFAFAF",
"q 	c #A6A6A6",
"r 	c #969696",
"s 	c #949494",
"t 	c #B7B7B7",
"u 	c #B1B1B1",
"v 	c #AAAAAA",
"w 	c #9C9C9C",
"x 	c #898989",
"y 	c #7C7C7C",
"z 	c #D8D8D8",
"A 	c #A0A0A0",
"B 	c #8E8E8E",
"C 	c #929292",
"D 	c #9D9D9D",
"E 	c #919191",
"F 	c #7D7D7D",
"G 	c #787878",
"H 	c #B0B0B0",
"I 	c #ABABAB",
"J 	c #A1A1A1",
"K 	c #797979",
"L 	c #747474",
"M 	c #D5D5D5",
"N 	c #A8A8A8",
"O 	c #858585",
"P 	c #717171",
"Q 	c #6A6A6A",
"R 	c #A4A4A4",
"S 	c #7B7B7B",
"T 	c #686868",
"U 	c #636363",
"V 	c #909090",
"W 	c #616161",
"X 	c #C1C1C1",
"Y 	c #C0C0C0",
"Z 	c #6C6C6C",
"` 	c #595959",
" .	c #6E6E6E",
"..	c #656565",
"+.	c #535353",
"@.	c #979797",
"#.	c #575757",
"$.	c #4B4B4B",
"%.	c #A9A9A9",
"&.	c #A7A7A7",
"*.	c #4A4A4A",
"=.	c #707070",
"-.	c #A3A3A3",
";.	c #9B9B9B",
">.	c #ACACAC",
",.	c #848484",
"'.	c #6F6F6F",
").	c #494949",
"!.	c #434343",
"~.	c #828282",
"{.	c #7E7E7E",
"].	c #5A5A5A",
"^.	c #474747",
"/.	c #404040",
"(.	c #8C8C8C",
"_.	c #8D8D8D",
":.	c #939393",
"<.	c #727272",
"[.	c #555555",
"}.	c #484848",
"|.	c #3F3F3F",
"1.	c #7A7A7A",
"2.	c #757575",
"3.	c #767676",
"4.	c #5E5E5E",
"5.	c #545454",
"6.	c #5B5B5B",
"7.	c #5C5C5C",
"8.	c #5D5D5D",
"9.	c #4F4F4F",
"0.	c #464646",
"a.	c #3D3D3D",
"b.	c #393939",
". . . . . . . . . . . . . . . . . . . . . . . . . . . . . . . . ",
". . . . . . . . . . . . . . . + + . . . . . . . . . . . . . . . ",
". . . . . . . . . . . . . . . + + . . . . . . . . . . . . . . . ",
". . . . . . . . . . . . . . . . . . . . . . . . . . . . . . . . ",
". . . . . . . . . . . @ # $ % & * = - ; @ . . . . . . . . . . . ",
". . . . . . . . . @ > , ' ) ! ~ { ] & * ^ / @ . . . . . . . . . ",
". . . . . . . . ( _ : < [ ! { * } ^ | 1 2 % 3 4 . . . . . . . . ",
". . . . . . . # , 5 : 6 7 8 9 0 a % b b b c 3 $ . . . . . . . . ",
". . . . . . ( [ 5 5 6 d 1 e = f f g g g g g h i j k . . . . . . ",
". . . . . @ l : : [ m 9 n g o o o o o o o o p q r @ @ . . . . . ",
". . . . . s [ , 6 m 1 t g o o o o o o o o o u v w x y . . . . . ",
". . . . @ _ [ z m 1 t o o o o o o o o o o o o h A B k @ . . . . ",
". . . . x ) 6 7 ^ b o o o o o o o o o o o o o p q C 4 . . . . . ",
". . . . D z _ ] 2 f o o o o o o o o o o o o o 3 q E F G . . . . ",
". . . . e _ ! 8 e g o o o o o o o o o o o o H I J B K L . . . . ",
". . . . ] M 7 ^ b g o o o o o o o o o o o u 3 N - O P Q . . . . ",
". . . . & l { 1 t o o o o o o o o o o o o H h R s S T U . . . . ",
". . . . g ] 8 2 f o o o o o o o o o o o o 3 v i V L W U . . . . ",
". . . . s X Y b o o o o o o o o o o o o H h N w # Z `  .. . . . ",
". . . . O c c o u u o o o o o o o o o o p v i r k ..+.y . . . . ",
". . . . @ u 3 I I p H o o o o u H H H 3 v i @.O Z #.$.@ . . . . ",
". . . . . x %.R R %.h H o o u p h I %.&.R r O  .` *.=.. . . . . ",
". . . . . @ -.D ;.A &.>.p H 3 I &.-.A w C ,.'.#.).!.@ . . . . . ",
". . . . . . ~.> C r - A q &.q R A @.E x {.Z ].^./.{.. . . . . . ",
". . . . . . . k (._./ B j C :.E (.( F <.U [.}.|.1.. . . . . . . ",
". . . . . + + . k 4 1.L <.P 2.3.=.Q 4.5.)./.|.{.. + + . . . . . ",
". . . . . + + . . @ K U 6.7.8.7.[.9.0.a.b.Z @ . . + + . . . . . ",
". . . . . . . . . . . @ y  .4.+.*.+...1.@ . . . . . . . . . . . ",
". . . . . . . . . . . . . . . . . . . . . . . . . . . . . . . . ",
". . . . . . . . . . . . . . . . . . . . . . . . . . . . . . . . ",
". . . . . . . . . . . . . . . . . . . . . . . . . . . . . . . . ",
". . . . . . . . . . . . . . . . . . . . . . . . . . . . . . . . "};
