/* XPM */
static char * oss_output_xpm[] = {
"48 48 178 2",
"  	c None",
". 	c #000000",
"+ 	c #444444",
"@ 	c #787878",
"# 	c #505050",
"$ 	c #6A6A6A",
"% 	c #585858",
"& 	c #717171",
"* 	c #7D7D7D",
"= 	c #525252",
"- 	c #2A2A2A",
"; 	c #646464",
"> 	c #202020",
", 	c #080808",
"' 	c #2F2F2F",
") 	c #6D6D6D",
"! 	c #7E7E7E",
"~ 	c #2B2B2B",
"{ 	c #010101",
"] 	c #090909",
"^ 	c #040404",
"/ 	c #757575",
"( 	c #363636",
"_ 	c #050505",
": 	c #2E2E2E",
"< 	c #676767",
"[ 	c #020202",
"} 	c #171717",
"| 	c #313131",
"1 	c #353535",
"2 	c #6B6B6B",
"3 	c #1D1D1D",
"4 	c #030303",
"5 	c #262626",
"6 	c #707070",
"7 	c #252525",
"8 	c #141414",
"9 	c #3E3E3E",
"0 	c #686868",
"a 	c #7B7B7B",
"b 	c #0A0A0A",
"c 	c #4D4D4D",
"d 	c #5F5F5F",
"e 	c #070707",
"f 	c #333333",
"g 	c #575757",
"h 	c #4C4C4C",
"i 	c #898989",
"j 	c #666666",
"k 	c #131313",
"l 	c #111111",
"m 	c #1E1E1E",
"n 	c #696969",
"o 	c #626262",
"p 	c #616161",
"q 	c #454545",
"r 	c #060606",
"s 	c #101010",
"t 	c #0D0D0D",
"u 	c #0C0C0C",
"v 	c #161616",
"w 	c #0F0F0F",
"x 	c #191919",
"y 	c #494949",
"z 	c #6C6C6C",
"A 	c #303030",
"B 	c #393939",
"C 	c #383838",
"D 	c #535353",
"E 	c #484848",
"F 	c #474747",
"G 	c #989898",
"H 	c #434343",
"I 	c #222222",
"J 	c #4F4F4F",
"K 	c #848484",
"L 	c #747474",
"M 	c #5C5B5B",
"N 	c #0E0E0E",
"O 	c #1A1A1A",
"P 	c #5C5C5C",
"Q 	c #1F1F1F",
"R 	c #656565",
"S 	c #6E6E6E",
"T 	c #7F7F7F",
"U 	c #888888",
"V 	c #282828",
"W 	c #838383",
"X 	c #797979",
"Y 	c #5D5B5B",
"Z 	c #524B4B",
"` 	c #121212",
" .	c #272727",
"..	c #636363",
"+.	c #4B4B4B",
"@.	c #7A7A7A",
"#.	c #727272",
"$.	c #5A5A5A",
"%.	c #212121",
"&.	c #565656",
"*.	c #5E5E5E",
"=.	c #4E4E4E",
"-.	c #5B5858",
";.	c #746161",
">.	c #504545",
",.	c #5C5151",
"'.	c #635959",
").	c #514F4F",
"!.	c #606060",
"~.	c #232323",
"{.	c #4A4A4A",
"].	c #615D5D",
"^.	c #7E6161",
"/.	c #7F5252",
"(.	c #7F6060",
"_.	c #7F6C6C",
":.	c #796E6E",
"<.	c #5F5D5D",
"[.	c #0B0B0B",
"}.	c #464646",
"|.	c #635B5B",
"1.	c #7F3E3E",
"2.	c #7F1C1C",
"3.	c #7F3A3A",
"4.	c #7F6767",
"5.	c #7E6D6D",
"6.	c #787474",
"7.	c #5D5D5D",
"8.	c #7C7C7C",
"9.	c #3B3B3B",
"0.	c #323232",
"a.	c #404040",
"b.	c #645A5A",
"c.	c #7F2828",
"d.	c #7F0C0C",
"e.	c #7F2121",
"f.	c #7F5C5C",
"g.	c #7B7272",
"h.	c #575656",
"i.	c #2C2C2C",
"j.	c #2D2D2D",
"k.	c #3D3D3D",
"l.	c #7F3333",
"m.	c #7F1313",
"n.	c #7F2D2D",
"o.	c #7F5D5D",
"p.	c #777171",
"q.	c #373737",
"r.	c #181818",
"s.	c #635C5C",
"t.	c #7F5555",
"u.	c #7F4545",
"v.	c #7F6F6F",
"w.	c #787777",
"x.	c #151515",
"y.	c #625A5A",
"z.	c #7D6363",
"A.	c #756363",
"B.	c #7D7373",
"C.	c #7E7B7B",
"D.	c #5B5B5B",
"E.	c #1B1B1B",
"F.	c #3A3A3A",
"G.	c #1C1C1C",
"H.	c #3C3C3C",
"I.	c #595858",
"J.	c #6D6868",
"K.	c #3C3B3B",
"L.	c #6D6C6C",
"M.	c #3F3F3F",
"N.	c #515151",
"O.	c #424242",
"P.	c #242424",
"Q.	c #292929",
"R.	c #343434",
"S.	c #545454",
"T.	c #767676",
"U.	c #737373",
". . . . . . . . . . . . . . . . . . . . . . . . . . . . . . . . . . . . . . . . . . . . . . . . ",
". . . . . . . . . . . . . . . . . . . . . . . . . . . . . . . . . . . . . . . . . . . . . . . . ",
". . . . . . . . . . . . . . . . . . . . . . . . . . . . . . . . . . . . . . . . . . . . . . . . ",
". . . . . . . . . . . . . . . . . . . . . . . . . . . . . . . . . . . . . . . . . . . . . . . . ",
". . . . . . . . . . . . . . . . . . . . . . . . . . . . . . . . . . . . . . . . . . . . . . . . ",
". . . . . . . . . . . . . . . . . . . . . . . . . . . . . . . . . . . . . . . . . . . . . . . . ",
". . . . . . . . . . . . . . . . . . . . . . . . . . . . . . . . . . . . . . . . . . . . . . . . ",
". . . . . . . . . . . . . . . . . . . . . . . . . . . . . . . . . . . . . . . . . . . . . . . . ",
". . . . . . . . . . . . . . . . . . . . . . . . . . . . . . . . . . . . . . . . . . . . . . . . ",
". . . . . . . . . . . . . . . . . . . . . . . . . . . . . + @ @ + . . . . . . . . . . . . . . . ",
". . . . . . . . . . . . . . . . . . . . . . . . . . . . # $ % & * = . . . . . . . . . . . . . . ",
". . . . . . . . . . . . . . . . . . . . . . . . . . . - ; > , ' ) ! ~ . . . . . . . . . . . . . ",
". . . . . . . . . . . . . . . . . . . . . . . . { ] ^ / ( _ { , : < * . . . . . . . . . . . . . ",
". . . . . . . . . . . . . . . . . . . . . . . [ } | 1 2 3 [ { [ 4 5 6 7 . . . . . . . . . . . . ",
". . . . . . . . . . . . . . . . . . . . . . . 8 9 # 0 a - ^ _ , { b c d . . . . . . . . . . . . ",
". . . . . . . . . . . . . . . . . . . . . . e f g h i j k _ , l ^ 4 m n . . . . . . . . . . . . ",
". . . . . . . . . . . . . . . . . . . . . 4 > # o p @ q r s , ] t u v d } . . . . . . . . . . . ",
". . . . . . . . . . . . , l l w t l x ] ] m y < z ; n A ] ] l 4 [ r > 0 B . . . . . . . . . . . ",
". . . . . . . . . . . ] C D E + F ) G H I J @ K L p M 8 [ ^ > , N O 8 P D . . . . . . . . . . . ",
". . . . . . . . . . { Q R @ S S @ T U 1 V ; W X o Y Z . u 8 - _ `  .3 ..R . . . . . . . . . . . ",
". . . . . . . . . . u +.@.a #.S 0 $.+ l %.&.*.= =.-.;.>.,.'.).N 1 $...@.#.. . . . . . . . . . . ",
". . . . . . . . . [ - !.6 g =.# c E f , ~.F {.{.h ].^./.(._.:.<.& a ! T @.. . . . . . . . . . . ",
". . . . . . . . . r f p z # y h +.{.B [.- F }.{.h |.1.2.3.4.5.6.; 7.$ 8.* . . . . . . . . . . . ",
". . . . . . . . . e ' d $ # +.+.+.{.9.u 0.a.H {.h b.c.d.e.f.g.h.3 ` i.) T . . . . . . . . . . . ",
". . . . . . . . . r j.&.d # +.+.{.+.k.8 ( ( + {.h |.l.m.n.o.p.H u ^ 3 0 * . . . . . . . . . . . ",
". . . . . . . . . [.q.h c +.+.+.{.+.k.r.B 0.}.+.h s.t.u.t.v.w.k.4 . u ; @.. . . . . . . . . . . ",
". . . . . . . . . t C }.E E E {.y }.C x.i.| }.{.h y.z.A.B.C.D.b . . [.R #.. . . . . . . . . . . ",
". . . . . . . . . [ E.q.F.B F.9 k.q.j.G.V ~.H.{.{.I.J.K.L.#.I . . . N R R . . . . . . . . . . . ",
". . . . . . . . . . [ x i. .5 5  .7 ~.r.v 8 A M.M.=.N.b # H.[ . . . l R D . . . . . . . . . . . ",
". . . . . . . . . . . [ w w l ` x.G.3 3 8 x.7 q.a.O.c e M.x . . . { x.j B . . . . . . . . . . . ",
". . . . . . . . . . . . . . . . . ] t N [ N %. .B 9.h e k.E e . . . 8 z } . . . . . . . . . . . ",
". . . . . . . . . . . . . . . . . . . . . . b Q V a.g P.h = r . . . 7 8.. . . . . . . . . . . . ",
". . . . . . . . . . . . . . . . . . . . . . . k 5 B F V E p w . [ r =.o . . . . . . . . . . . . ",
". . . . . . . . . . . . . . . . . . . . . . . . 3 ( k.y ..L j.{ _ Q.S 7 . . . . . . . . . . . . ",
". . . . . . . . . . . . . . . . . . . . . . . . { > R.S.L T.i.[ b h a . . . . . . . . . . . . . ",
". . . . . . . . . . . . . . . . . . . . . . . . . e Q i.@ 8.J N R.& - . . . . . . . . . . . . . ",
". . . . . . . . . . . . . . . . . . . . . . . . . . [ { # T @ *.U.N.. . . . . . . . . . . . . . ",
". . . . . . . . . . . . . . . . . . . . . . . . . . . . . + @ @ + . . . . . . . . . . . . . . . ",
". . . . . . . . . . . . . . . . . . . . . . . . . . . . . . . . . . . . . . . . . . . . . . . . ",
". . . . . . . . . . . . . . . . . . . . . . . . . . . . . . . . . . . . . . . . . . . . . . . . ",
". . . . . . . . . . . . . . . . . . . . . . . . . . . . . . . . . . . . . . . . . . . . . . . . ",
". . . . . . . . . . . . . . . . . . . . . . . . . . . . . . . . . . . . . . . . . . . . . . . . ",
". . . . . . . . . . . . . . . . . . . . . . . . . . . . . . . . . . . . . . . . . . . . . . . . ",
". . . . . . . . . . . . . . . . . . . . . . . . . . . . . . . . . . . . . . . . . . . . . . . . ",
". . . . . . . . . . . . . . . . . . . . . . . . . . . . . . . . . . . . . . . . . . . . . . . . ",
". . . . . . . . . . . . . . . . . . . . . . . . . . . . . . . . . . . . . . . . . . . . . . . . ",
". . . . . . . . . . . . . . . . . . . . . . . . . . . . . . . . . . . . . . . . . . . . . . . . ",
". . . . . . . . . . . . . . . . . . . . . . . . . . . . . . . . . . . . . . . . . . . . . . . . "};
