/* XPM */
static char * appicon_xpm[] = {
"48 48 99 2",
"  	c None",
". 	c #000000",
"+ 	c #C7C7C7",
"@ 	c #F4F4F4",
"# 	c #909090",
"$ 	c #F7F7F7",
"% 	c #D8D8D8",
"& 	c #5D5D5D",
"* 	c #F8F8F8",
"= 	c #EDEDED",
"- 	c #A3A3A3",
"; 	c #494949",
"> 	c #F2F2F2",
", 	c #CDCDCD",
"' 	c #838383",
") 	c #474747",
"! 	c #DDDDDD",
"~ 	c #ABABAB",
"{ 	c #757575",
"] 	c #E3E3E3",
"^ 	c #C2C2C2",
"/ 	c #999999",
"( 	c #747474",
"_ 	c #E4E4E4",
": 	c #CCCCCC",
"< 	c #AEAEAE",
"[ 	c #919191",
"} 	c #CECECE",
"| 	c #B9B9B9",
"1 	c #A5A5A5",
"2 	c #BCBCBC",
"3 	c #B0B0B0",
"4 	c #F6F6F6",
"5 	c #EEEEEE",
"6 	c #E5E5E5",
"7 	c #EAEAEA",
"8 	c #F3F3F3",
"9 	c #B3B3B3",
"0 	c #ADADAD",
"a 	c #FF0000",
"b 	c #D9D9D9",
"c 	c #E1E1E1",
"d 	c #DEDEDE",
"e 	c #E2E2E2",
"f 	c #E7E7E7",
"g 	c #B1B1B1",
"h 	c #C9C9C9",
"i 	c #D2D2D2",
"j 	c #D1D1D1",
"k 	c #D4D4D4",
"l 	c #CBCBCB",
"m 	c #C8C8C8",
"n 	c #C1C1C1",
"o 	c #C0C0C0",
"p 	c #BBBBBB",
"q 	c #C5C5C5",
"r 	c #B5B5B5",
"s 	c #B4B4B4",
"t 	c #B2B2B2",
"u 	c #BABABA",
"v 	c #ACACAC",
"w 	c #AFAFAF",
"x 	c #BFBFBF",
"y 	c #A0A0A0",
"z 	c #9D9D9D",
"A 	c #9F9F9F",
"B 	c #A8A8A8",
"C 	c #A6A6A6",
"D 	c #8D8D8D",
"E 	c #858585",
"F 	c #898989",
"G 	c #A7A7A7",
"H 	c #707070",
"I 	c #616161",
"J 	c #686868",
"K 	c #818181",
"L 	c #797979",
"M 	c #424242",
"N 	c #2B2B2B",
"O 	c #373737",
"P 	c #5C5C5C",
"Q 	c #808080",
"R 	c #696969",
"S 	c #070707",
"T 	c #6C6C6C",
"U 	c #A2A2A2",
"V 	c #060606",
"W 	c #9A9A9A",
"X 	c #A1A1A1",
"Y 	c #9B9B9B",
"Z 	c #939393",
"` 	c #6D6D6D",
" .	c #878787",
"..	c #7A7A7A",
"+.	c #727272",
"@.	c #7B7B7B",
"#.	c #484848",
"$.	c #050505",
"%.	c #404040",
". . . . . . . . . . . . . . . . . . . . . . . . . . . . . . . . . . . . . . . . . . . . . . . . ",
". . . . . . . . . . . . . . . . . . . . . . . . . . . . . . . . . . . . . . . . . . . . . . . . ",
". . . . . . . . . . . . . . . . . . . . . . . . . . . . . . . . . . . . . . . . . . . . . . . . ",
". . . . . . . . . . . . . . . . . . . . . . . . . . . . . . . . . . . . . . . . . . . . . . . . ",
". . . . . . . . . . . . . . . . . . . . . . . . . . . . . . . . . . . . . . . . . . . . . . . . ",
". . . . . . . . . . . . . . . . . . . . . . . . . . . . . . . . . . . . . . . . . . . . . . . . ",
". . . . . . . . . . . . . . . . . . . . . . . . . . . . . . + . . . . . . . . . . . . . . . . . ",
". . . . . . . . . . . . . . . . . . . . . . . . . . . . . @ # . . . . . . . . . . . . . . . . . ",
". . . . . . . . . . . . . . . . . . . . . . . . . . . . $ % & . . . . . . . . . . . . . . . . . ",
". . . . . . . . . . . . . . . . . . . . . . . . . . . * = - ; . . . . . . . . . . . . . . . . . ",
". . . . . . . . . . . . . . . . . . . . . . . . . . * > , ' ) . . . . . . . . . . . . . . . . . ",
". . . . . . . . . . . . . . . . . . . . . . . . . * @ ! ~ { ) . . . . . . . . . . . . . . . . . ",
". . . . . . . . . . . . . . . . . . . . . . . . * @ ] ^ / ( ) . . . . . . . . . . . . . . . . . ",
". . . . . . . . . . . . . . . . . . . . . . . * @ _ : < [ ( ) . . . . . . . . . . . . . . . . . ",
". . . . . . . . . . . . . . . . . . . . . . * @ _ } | 1 # ( ) . . . . . . . . . . . . . . . . . ",
". . . . . . . . . . . . . . . . . . . . . * @ _ } 2 3 - # ( ) . . . . . . . . . . . . . . . . . ",
". . . . . . . . 4 5 6 6 6 6 6 6 6 6 6 7 4 8 _ } 2 9 0 - # ( ) . a a a . . . . . . . . . . . . . ",
". . . . . . . . b 6 c d d d d d d d d e f e } 2 9 g 0 - # ( ) . . . . a . . . . . . . . . . . . ",
". . . . . . . . h i j j j j j j j j j i k : 2 9 g g 0 - # ( ) . . . . . a . . . . . . . . . . . ",
". . . . . . . . h l m ^ n n n n n n n n o p 9 g g g 0 - # ( ) . a a . . . a . . . . . . . . . . ",
". . . . . . . . h l q 2 r r r r r r r r s t g g g g 0 - # ( ) . . . a . . . a . . . . . . . . . ",
". . . . . . . . h l q 2 9 g g g g g g g g g g g g g 0 - # ( ) . . . . a . . . a . . . . . . . . ",
". . . . . . . . h l q 2 9 g g g g g g g g g g g g g 0 - # ( ) . a . . . a . . a . . . . . . . . ",
". . . . . . . . h l q 2 9 g g g g g g g g g g g g g 0 - # ( ) . . a . . a . . a . . . . . . . . ",
". . . . . . . . h l q 2 9 g g g g g g g g g g g g g 0 - # ( ) . . a . . a . . a . . . . . . . . ",
". . . . . . . . h l q 2 9 g g g g g g g g g g g g g 0 - # ( ) . a . . . a . . a . . . . . . . . ",
". . . . . . . . h l q 2 9 g g g g g g g g g g g g g 0 - # ( ) . . . . a . . . a . . . . . . . . ",
". . . . . . . . h l q u 3 v v v v v v 0 w 3 g g g g 0 - # ( ) . . . a . . . a . . . . . . . . . ",
". . . . . . . . h l x v y z z z z z z A B < 3 g g g 0 - # ( ) . a a . . . a . . . . . . . . . . ",
". . . . . . . . h ^ C D E E E E E E E F / G < 3 g g 0 - # ( ) . . . . . a . . . . . . . . . . . ",
". . . . . . . . u / H I I I I I I I I J K / B < 3 g 0 - # ( ) . . . . a . . . . . . . . . . . . ",
". . . . . . . . L M N N N N N N N N N O P Q / B < 3 0 - # ( ) . a a a . . . . . . . . . . . . . ",
". . . . . . . . . . . . . . . . . . . . . R K / B < 0 - # ( ) . . . . . . . . . . . . . . . . . ",
". . . . . . . . . . . . . . . . . . . . . S T K / B ~ U # ( ) . . . . . . . . . . . . . . . . . ",
". . . . . . . . . . . . . . . . . . . . . . . T K / G U # ( ) . . . . . . . . . . . . . . . . . ",
". . . . . . . . . . . . . . . . . . . . . . . V T K W X # ( ) . . . . . . . . . . . . . . . . . ",
". . . . . . . . . . . . . . . . . . . . . . . . . T K Y Z ( ) . . . . . . . . . . . . . . . . . ",
". . . . . . . . . . . . . . . . . . . . . . . . . S T E Z ( ) . . . . . . . . . . . . . . . . . ",
". . . . . . . . . . . . . . . . . . . . . . . . . . S `  ...) . . . . . . . . . . . . . . . . . ",
". . . . . . . . . . . . . . . . . . . . . . . . . . . . +.@.#.. . . . . . . . . . . . . . . . . ",
". . . . . . . . . . . . . . . . . . . . . . . . . . . . $.H #.. . . . . . . . . . . . . . . . . ",
". . . . . . . . . . . . . . . . . . . . . . . . . . . . . . %.. . . . . . . . . . . . . . . . . ",
". . . . . . . . . . . . . . . . . . . . . . . . . . . . . . . . . . . . . . . . . . . . . . . . ",
". . . . . . . . . . . . . . . . . . . . . . . . . . . . . . . . . . . . . . . . . . . . . . . . ",
". . . . . . . . . . . . . . . . . . . . . . . . . . . . . . . . . . . . . . . . . . . . . . . . ",
". . . . . . . . . . . . . . . . . . . . . . . . . . . . . . . . . . . . . . . . . . . . . . . . ",
". . . . . . . . . . . . . . . . . . . . . . . . . . . . . . . . . . . . . . . . . . . . . . . . ",
". . . . . . . . . . . . . . . . . . . . . . . . . . . . . . . . . . . . . . . . . . . . . . . . "};
