/* XPM */
static char * slider_xpm[] = {
"24 8 94 2",
"  	c None",
". 	c #EBEBEB",
"+ 	c #EAEAEA",
"@ 	c #E5E5E5",
"# 	c #E4E4E4",
"$ 	c #E2E2E2",
"% 	c #E3E3E3",
"& 	c #E6E6E6",
"* 	c #E9E9E9",
"= 	c #E7E7E7",
"- 	c #E8E8E8",
"; 	c #E1E1E1",
"> 	c #E0E0E0",
", 	c #DBDBDB",
"' 	c #D4D4D4",
") 	c #C7C7C7",
"! 	c #D9D9D9",
"~ 	c #D5D5D5",
"{ 	c #D7D7D7",
"] 	c #D8D8D8",
"^ 	c #DDDDDD",
"/ 	c #DADADA",
"( 	c #D6D6D6",
"_ 	c #D0D0D0",
": 	c #CECECE",
"< 	c #D1D1D1",
"[ 	c #CBCBCB",
"} 	c #BDBDBD",
"| 	c #AEAEAE",
"1 	c #EEEEEE",
"2 	c #C4C4C4",
"3 	c #BBBBBB",
"4 	c #C0C0C0",
"5 	c #BFBFBF",
"6 	c #C2C2C2",
"7 	c #C1C1C1",
"8 	c #BEBEBE",
"9 	c #BCBCBC",
"0 	c #B4B4B4",
"a 	c #999999",
"b 	c #868686",
"c 	c #AFAFAF",
"d 	c #A3A3A3",
"e 	c #858585",
"f 	c #7F7F7F",
"g 	c #7D7D7D",
"h 	c #6F6F6F",
"i 	c #616161",
"j 	c #DCDCDC",
"k 	c #CCCCCC",
"l 	c #C9C9C9",
"m 	c #ADADAD",
"n 	c #929292",
"o 	c #B6B6B6",
"p 	c #A6A6A6",
"q 	c #A4A4A4",
"r 	c #A5A5A5",
"s 	c #A8A8A8",
"t 	c #A7A7A7",
"u 	c #A9A9A9",
"v 	c #9E9E9E",
"w 	c #9F9F9F",
"x 	c #A1A1A1",
"y 	c #959595",
"z 	c #555555",
"A 	c #A2A2A2",
"B 	c #919191",
"C 	c #8B8B8B",
"D 	c #898989",
"E 	c #878787",
"F 	c #888888",
"G 	c #8D8D8D",
"H 	c #8C8C8C",
"I 	c #8A8A8A",
"J 	c #848484",
"K 	c #797979",
"L 	c #696969",
"M 	c #5C5C5C",
"N 	c #B1B1B1",
"O 	c #939393",
"P 	c #818181",
"Q 	c #7B7B7B",
"R 	c #787878",
"S 	c #747474",
"T 	c #6C6C6C",
"U 	c #6A6A6A",
"V 	c #727272",
"W 	c #717171",
"X 	c #737373",
"Y 	c #707070",
"Z 	c #6E6E6E",
"` 	c #646464",
" .	c #686868",
"..	c #666666",
". + @ @ # # $ $ % & * * & & = - @ ; > ; > , ' ) ",
". @ ! ~ { { ] ! ] , ^ ^ / ] ! ! ( _ : _ < [ } | ",
"1 % 2 3 } } 4 5 4 4 6 7 8 3 8 8 9 9 9 } } 0 a b ",
"c d e f f f f f f f f f f f f f f f f f f g h i ",
"j ] : k k k k k k k k k k k k k k k k k k l m n ",
"+ { o p q d d r r s t u t t r d v v w x v y h z ",
"j ) A B C D D E E F G H C H C I E J J e f K L M ",
"l N O P Q R S T U h V V W W X X Y Z W U `  ...` "};
